<?xml version="1.0" encoding="UTF-8"?>
<svg width="630px" height="956px" viewBox="0 0 630 956" version="1.1" xmlns="http://www.w3.org/2000/svg" xmlns:xlink="http://www.w3.org/1999/xlink">
    <!-- Generator: Sketch 50.2 (55047) - http://www.bohemiancoding.com/sketch -->
    <title>face</title>
    <desc>Created with Sketch.</desc>
    <defs>
        <filter x="-1.4%" y="-1.4%" width="103.1%" height="103.1%" filterUnits="objectBoundingBox" id="filter-1">
            <feOffset dx="2" dy="2" in="SourceAlpha" result="shadowOffsetOuter1"></feOffset>
            <feGaussianBlur stdDeviation="5" in="shadowOffsetOuter1" result="shadowBlurOuter1"></feGaussianBlur>
            <feColorMatrix values="0 0 0 0 0   0 0 0 0 0   0 0 0 0 0  0 0 0 0.5 0" type="matrix" in="shadowBlurOuter1" result="shadowMatrixOuter1"></feColorMatrix>
            <feMerge>
                <feMergeNode in="shadowMatrixOuter1"></feMergeNode>
                <feMergeNode in="SourceGraphic"></feMergeNode>
            </feMerge>
        </filter>
    </defs>
    <g id="Page-1" stroke="none" stroke-width="1" fill="none" fill-rule="evenodd">
        <g id="Desktop-HD" transform="translate(-5479.000000, -1144.000000)">
            <g id="face" filter="url(#filter-1)" transform="translate(5330.000000, 1074.000000)">
                <path d="M192.331877,440.407645 C183.333083,518.088899 184.279086,574.866689 194.592473,609.872342 C204.959772,645.060981 235.221876,693.657762 285.388686,754.606069 L641.29133,863.359823 C661.500349,842.586692 678.567449,827.086657 692.728839,816.749489 C709.875289,804.233362 723.892,798.135566 737.455198,800.086245 C768.500539,804.551231 794.729371,816.775979 818.917933,835.194705 C820.244596,836.204911 821.54509,837.217037 822.832529,838.24077 C818.655126,824.211187 813.186106,807.218221 806.34686,786.826141 C805.321125,783.767781 804.263059,780.628353 803.165477,777.385655 C798.724172,764.264259 784.803516,723.765516 783.773313,720.74197 C777.023165,700.930924 773.895929,691.183357 772.855583,685.989115 C759.967049,621.639258 665.063771,442.724677 489.964586,154.424409 L192.331877,440.407645 Z" id="head" stroke="#33658A" stroke-width="41" fill="#00BFB2" transform="translate(509.028077, 509.052214) rotate(45.000000) translate(-509.028077, -509.052214) "></path>
                <path d="M426.788417,564.854163 C453.875998,564.854163 475.834821,543.741538 475.834821,517.697794 C475.834821,491.654051 453.875998,470.541426 426.788417,470.541426 C399.700837,470.541426 426.788417,491.654051 426.788417,517.697794 C426.788417,543.741538 399.700837,564.854163 426.788417,564.854163 Z" id="Oval" fill="#33658A" transform="translate(445.292157, 517.697794) rotate(-120.000000) translate(-445.292157, -517.697794) "></path>
                <path d="M325.525433,783.017341 L356,783.017341 C367.045695,783.017341 376,791.971646 376,803.017341 L376,834.195375 C376,844.694148 367.489063,853.205085 356.99029,853.205085 C354.458005,853.205085 351.951241,852.699145 349.617187,851.716974 L329.849827,843.398852 C325.573052,841.599182 322.055087,838.368473 319.898505,834.260095 L308.117187,811.816203 C303.070415,802.201894 306.773135,790.31674 316.387443,785.269967 C319.206149,783.790363 322.341987,783.017341 325.525433,783.017341 Z" id="Rectangle-4" fill="#33658A"></path>
                <path d="M448.113679,169.386653 L487.870098,90.6777391 C490.360109,85.7480674 496.37495,83.7703317 501.304622,86.2603428 C504.066274,87.6552724 506.026715,90.2499639 506.614153,93.2876388 C525.534048,191.123433 534.686658,260.761841 534.071983,302.202863 C533.399093,347.568672 510.914798,382.164461 466.619098,405.990228 L455.281587,423.434856 L386.920416,423.434858 C383.52587,423.434858 380.36311,421.712822 378.520979,418.861595 C347.908245,371.479603 336.078548,342.439177 343.031889,331.740317 C349.986606,321.03934 387.597753,297.976103 455.865329,262.550607 L455.865329,262.550605 C459.762692,260.528181 461.884856,256.199999 461.097077,251.880387 L447.201905,175.689355 C446.810875,173.54523 447.131041,171.332058 448.113679,169.386653 Z" id="Rectangle-5" fill="#33658A" transform="translate(437.601164, 254.430378) rotate(-32.000000) translate(-437.601164, -254.430378) "></path>
            </g>
        </g>
    </g>
</svg>