<?xml version="1.0" encoding="UTF-8"?>
<svg width="429px" height="418px" viewBox="0 0 429 418" version="1.1" xmlns="http://www.w3.org/2000/svg" xmlns:xlink="http://www.w3.org/1999/xlink">
    <!-- Generator: Sketch 50.2 (55047) - http://www.bohemiancoding.com/sketch -->
    <title>Octicons-mark-github</title>
    <desc>Created with Sketch.</desc>
    <defs></defs>
    <g id="Page-1" stroke="none" stroke-width="1" fill="none" fill-rule="evenodd">
        <g id="Desktop-HD" transform="translate(-5839.000000, -3032.000000)" fill="#35495E" fill-rule="nonzero">
            <g id="Octicons-mark-github" transform="translate(5839.000000, 3032.000000)">
                <path d="M214.23023,0 C95.9224224,0 0,95.9224224 0,214.23023 C0,308.897397 61.376961,389.181431 146.51172,417.502919 C157.220721,419.464464 161.130422,412.848014 161.130422,407.199365 C161.130422,402.099682 160.934184,385.206456 160.82958,367.319069 C101.257257,380.26368 88.6653734,342.057057 88.6653734,342.057057 C78.9112032,317.318068 64.8807968,310.727978 64.8807968,310.727978 C45.4113694,297.443193 66.3578138,297.704705 66.3578138,297.704705 C87.867031,299.195111 99.1911071,319.776276 99.1911071,319.776276 C118.307808,352.517518 149.349015,343.050801 161.535451,337.559059 C163.482771,323.751251 169.026815,314.284535 175.13405,308.9497 C127.578286,303.536621 77.5513433,285.152152 77.5513433,203.063479 C77.5513433,179.65799 85.9067407,160.568068 99.5835836,145.570278 C97.3998579,140.130839 90.0252332,118.33375 101.701618,88.8486406 C101.701618,88.8486406 119.667668,83.0953874 160.619952,110.815608 C177.696444,106.043127 196.01564,103.689524 214.229812,103.610861 C232.431013,103.689524 250.762761,106.069069 267.866032,110.84155 C308.74049,83.0953874 326.732482,88.8745826 326.732482,88.8745826 C338.448198,118.386052 331.073574,140.156781 328.876877,145.570278 C342.606022,160.568068 350.896146,179.658408 350.896146,203.063479 C350.896146,285.361361 300.790541,303.4839 253.064899,308.792793 C260.779698,315.435185 267.604939,328.458458 267.604939,348.437938 C267.604939,377.073658 267.317067,400.164915 267.317067,407.225726 C267.317067,412.926677 271.213379,419.595011 282.066316,417.502919 C367.13622,389.129129 428.46046,308.845095 428.46046,214.23023 C428.46046,95.9224224 332.538038,0 214.23023,0 Z" id="Shape"></path>
            </g>
        </g>
    </g>
</svg>