<?xml version="1.0" encoding="UTF-8"?>
<svg width="512px" height="418px" viewBox="0 0 512 418" version="1.1" xmlns="http://www.w3.org/2000/svg" xmlns:xlink="http://www.w3.org/1999/xlink">
    <!-- Generator: Sketch 50.2 (55047) - http://www.bohemiancoding.com/sketch -->
    <title>23931</title>
    <desc>Created with Sketch.</desc>
    <defs></defs>
    <g id="Page-1" stroke="none" stroke-width="1" fill="none" fill-rule="evenodd">
        <g id="Desktop-HD" transform="translate(-3390.000000, -3038.000000)" fill="#3B8070" fill-rule="nonzero">
            <g id="23931" transform="translate(3390.000000, 3038.000000)">
                <path d="M512.002,50.211 C493.162,58.565 472.92,64.212 451.672,66.751 C473.358,53.751 490.014,33.166 497.858,8.636 C477.559,20.675 455.081,29.416 431.153,34.126 C411.993,13.711 384.692,0.956 354.479,0.956 C296.468,0.956 249.437,47.985 249.437,105.995 C249.437,114.228 250.366,122.245 252.157,129.934 C164.857,125.552 87.456,83.734 35.648,20.181 C26.606,35.695 21.425,53.739 21.425,72.99 C21.425,109.434 39.969,141.586 68.155,160.423 C50.936,159.877 34.739,155.152 20.578,147.284 C20.568,147.722 20.568,148.162 20.568,148.605 C20.568,199.499 56.777,241.953 104.829,251.605 C96.016,254.004 86.735,255.292 77.155,255.292 C70.386,255.292 63.806,254.632 57.391,253.404 C70.759,295.134 109.551,325.508 155.517,326.353 C119.567,354.529 74.274,371.32 25.059,371.32 C16.58,371.32 8.219,370.824 0.001,369.849 C46.487,399.656 101.702,417.046 161.022,417.046 C354.233,417.046 459.89,256.984 459.89,118.174 C459.89,113.62 459.786,109.09 459.585,104.584 C480.111,89.775 497.92,71.275 512.002,50.211 Z" id="Shape"></path>
            </g>
        </g>
    </g>
</svg>